<svg xmlns="http://www.w3.org/2000/svg" enable-background="new 0 0 512 512" viewBox="0 0 512 512"><path fill="#f2f0f0" d="M376.798,165.38c0,39.881-42,65.315-77.056,47.955c-17.715,31.434-63.04,31.884-81.326,0.615c-21.304,32.635-69.573,30.358-87.849-3.655c-16.169,30.345-59.671,30.233-75.689-0.205c-26.061-1.23-46.76-22.679-46.76-49.048c0-32.166,30.366-55.61,61.549-47.545c-16.203-47.393,37.424-88.74,79.242-61.549c16.088-30.775,48.331-51.78,85.493-51.78c59.762,0,104.941,53.829,95.159,112.134C356.168,115.376,376.798,137.987,376.798,165.38z"/><path d="M376.777,165.396c0,37.077-36.339,61.707-69.671,50.947c20.938-6.645,37.393-25.948,37.393-50.947c0-27.425-20.622-49.999-47.256-53.11C306.157,59.334,269.66,10.074,218.132,1.53c5.274-0.897,10.706-1.371,16.244-1.371c59.808,0,104.954,53.849,95.197,112.127C356.155,115.397,376.777,137.97,376.777,165.396z" opacity=".08"/><path fill="#e5e3e5" d="M503.882,242.534c0,27.729-29.202,45.413-53.576,33.343c-12.317,21.855-43.831,22.168-56.545,0.427c-14.812,22.691-48.374,21.108-61.081-2.541c-11.242,21.099-41.489,21.02-52.626-0.142c-18.12-0.855-32.512-15.769-32.512-34.102c0-22.364,21.113-38.665,42.794-33.058c-11.266-32.952,26.02-61.7,55.096-42.794c11.186-21.397,33.604-36.002,59.442-36.002c41.552,0,72.965,37.427,66.163,77.966C489.538,207.767,503.882,223.488,503.882,242.534z"/><path d="M503.882,242.556c0,26.159-26.054,43.406-49.471,35.125c14.187-4.852,25.21-18.143,25.21-35.125c0-19.092-14.346-34.809-32.858-36.919c6.118-36.444-18.67-70.356-53.901-76.843c3.903-0.738,7.911-1.108,12.025-1.108c41.56,0,72.941,37.393,66.137,77.951C489.537,207.746,503.882,223.463,503.882,242.556z" opacity=".08"/><polygon fill="#dbdbdb" points="154.185 285.787 154.184 285.787 154.185 285.787"/><polygon fill="#dbdbdb" points="154.185 285.787 154.185 285.787 154.185 285.787"/><path fill="#6d6d6d" d="M56.814,491.578c-20.033-10.102-28.113-34.619-18.011-54.652l1.841-3.651c2.973-5.897,10.166-8.27,16.066-5.295c5.9,2.975,8.268,10.17,5.295,16.066l-1.841,3.651c-4.162,8.254-0.832,18.358,7.422,22.52c8.254,4.162,18.354,0.83,22.516-7.423l154.021-305.445c2.973-5.897,10.166-8.27,16.066-5.295c5.9,2.975,8.268,10.17,5.295,16.066L111.462,473.565C101.361,493.598,76.846,501.68,56.814,491.578z"/><path fill="#f96464" d="M252.727,166.751c-60.484-30.5-143.445,64.091-172.077,120.873c-3.442-1.736-6.527-4.398-8.415-7.896l-0.088-0.045c-5.656-10.996-22.776-26.27-48.284-33.313c-14.024-3.39-21.143-19.873-10.896-32.391C79.129,138.653,177.473,128.804,252.727,166.751z"/><path fill="#ffce29" d="M356.631,390.044c-4.641,12.934-20.876,17.255-31.85,8.068c-20.307-15.913-42.983-21.058-55.493-19.018l-0.088-0.045c-3.935,0.561-7.91-0.336-11.352-2.072c0.224-0.662,0.58-1.368,0.891-1.986c28.669-63.006,53.569-178.196-6.012-208.241c87.121,43.932,125.752,144.531,104.127,222.63C356.765,389.558,356.764,389.779,356.631,390.044z"/><path fill="#f96464" d="M257.847,376.978c-3.353-1.691-6.217-4.353-8.062-7.718l-0.088-0.045c-9.876-19.214-46.276-38.629-69.185-34.887l-0.088-0.045c-3.891,0.473-7.734-0.247-11.175-1.983l83.479-165.55c60.147,30.33,34.65,145.303,6.012,208.241C258.427,375.61,258.071,376.316,257.847,376.978z"/><path fill="#ffce29" d="M252.727,166.751l-83.479,165.55c-3.442-1.736-6.305-4.398-8.238-7.807l-0.088-0.045c-10.622-20.666-47.978-38.351-69.185-34.887l-0.088-0.045c-3.803,0.517-7.645-0.202-10.999-1.893C108.717,231.962,192.033,136.146,252.727,166.751z"/><path fill="#66d5f2" d="M210.313 416.885c-3.931 8.115-13.656 11.493-21.771 7.562-8.085-3.916-11.462-13.641-7.532-21.756 2.126-4.389 11.846-13.458 20.287-20.83 5.129-4.48 13.099-.622 12.769 6.179C213.522 399.239 212.44 412.495 210.313 416.885zM65.391 337.225c-3.931 8.115-13.656 11.493-21.771 7.563-8.085-3.916-11.462-13.641-7.532-21.756 2.126-4.389 11.846-13.458 20.287-20.83 5.129-4.48 13.099-.622 12.769 6.179C68.6 319.579 67.518 332.835 65.391 337.225zM409.997 352.687c-2.496 8.664-11.506 13.645-20.17 11.15-8.632-2.486-13.612-11.496-11.117-20.16 1.35-4.687 9.388-15.274 16.454-23.973 4.294-5.286 12.803-2.838 13.632 3.921C410.162 334.753 411.347 348 409.997 352.687zM275.028 500.048c-2.496 8.664-11.506 13.645-20.17 11.15-8.632-2.486-13.612-11.496-11.117-20.16 1.35-4.687 9.388-15.274 16.454-23.973 4.294-5.286 12.803-2.838 13.632 3.921C275.193 482.114 276.379 495.36 275.028 500.048z"/></svg>